<mxfile host="Electron" modified="2024-03-04T06:50:28.612Z" agent="Mozilla/5.0 (Macintosh; Intel Mac OS X 10_15_7) AppleWebKit/537.36 (KHTML, like Gecko) draw.io/22.1.11 Chrome/114.0.5735.289 Electron/25.9.8 Safari/537.36" etag="XNPy65qCzzENn0S81IKP" version="22.1.11" type="device">
  <diagram name="Страница — 1" id="NXzjeNUAMhVC3dC2J_HC">
    <mxGraphModel dx="907" dy="643" grid="1" gridSize="10" guides="1" tooltips="1" connect="1" arrows="1" fold="1" page="1" pageScale="1" pageWidth="827" pageHeight="1169" math="0" shadow="0">
      <root>
        <mxCell id="0" />
        <mxCell id="1" parent="0" />
        <mxCell id="Q2JburaHx3kO2y-ahh9q-5" style="edgeStyle=orthogonalEdgeStyle;shape=connector;rounded=0;orthogonalLoop=1;jettySize=auto;html=1;labelBackgroundColor=default;strokeColor=default;align=center;verticalAlign=middle;fontFamily=Helvetica;fontSize=11;fontColor=default;endArrow=none;endFill=0;" edge="1" parent="1" source="Q2JburaHx3kO2y-ahh9q-1" target="Q2JburaHx3kO2y-ahh9q-2">
          <mxGeometry relative="1" as="geometry" />
        </mxCell>
        <mxCell id="Q2JburaHx3kO2y-ahh9q-24" style="edgeStyle=orthogonalEdgeStyle;shape=connector;rounded=0;orthogonalLoop=1;jettySize=auto;html=1;labelBackgroundColor=default;strokeColor=default;align=center;verticalAlign=middle;fontFamily=Helvetica;fontSize=11;fontColor=default;endArrow=none;endFill=0;" edge="1" parent="1" source="Q2JburaHx3kO2y-ahh9q-1" target="Q2JburaHx3kO2y-ahh9q-21">
          <mxGeometry relative="1" as="geometry" />
        </mxCell>
        <mxCell id="Q2JburaHx3kO2y-ahh9q-25" style="edgeStyle=orthogonalEdgeStyle;shape=connector;rounded=0;orthogonalLoop=1;jettySize=auto;html=1;labelBackgroundColor=default;strokeColor=default;align=center;verticalAlign=middle;fontFamily=Helvetica;fontSize=11;fontColor=default;endArrow=none;endFill=0;" edge="1" parent="1" source="Q2JburaHx3kO2y-ahh9q-1" target="Q2JburaHx3kO2y-ahh9q-6">
          <mxGeometry relative="1" as="geometry" />
        </mxCell>
        <mxCell id="Q2JburaHx3kO2y-ahh9q-1" value="Envoy" style="shape=sumEllipse;perimeter=ellipsePerimeter;whiteSpace=wrap;html=1;backgroundOutline=1;labelPosition=center;verticalLabelPosition=bottom;align=center;verticalAlign=top;" vertex="1" parent="1">
          <mxGeometry x="360" y="230" width="80" height="80" as="geometry" />
        </mxCell>
        <mxCell id="Q2JburaHx3kO2y-ahh9q-4" style="edgeStyle=orthogonalEdgeStyle;rounded=0;orthogonalLoop=1;jettySize=auto;html=1;endArrow=none;endFill=0;" edge="1" parent="1" source="Q2JburaHx3kO2y-ahh9q-2" target="Q2JburaHx3kO2y-ahh9q-3">
          <mxGeometry relative="1" as="geometry" />
        </mxCell>
        <mxCell id="Q2JburaHx3kO2y-ahh9q-19" style="edgeStyle=orthogonalEdgeStyle;shape=connector;rounded=0;orthogonalLoop=1;jettySize=auto;html=1;labelBackgroundColor=default;strokeColor=default;align=center;verticalAlign=middle;fontFamily=Helvetica;fontSize=11;fontColor=default;endArrow=none;endFill=0;" edge="1" parent="1" source="Q2JburaHx3kO2y-ahh9q-2" target="Q2JburaHx3kO2y-ahh9q-18">
          <mxGeometry relative="1" as="geometry" />
        </mxCell>
        <mxCell id="Q2JburaHx3kO2y-ahh9q-2" value="3" style="whiteSpace=wrap;html=1;aspect=fixed;" vertex="1" parent="1">
          <mxGeometry x="560" y="230" width="80" height="80" as="geometry" />
        </mxCell>
        <mxCell id="Q2JburaHx3kO2y-ahh9q-3" value="Sqlite" style="shape=datastore;whiteSpace=wrap;html=1;" vertex="1" parent="1">
          <mxGeometry x="570" y="400" width="60" height="60" as="geometry" />
        </mxCell>
        <mxCell id="Q2JburaHx3kO2y-ahh9q-8" style="edgeStyle=orthogonalEdgeStyle;shape=connector;rounded=0;orthogonalLoop=1;jettySize=auto;html=1;labelBackgroundColor=default;strokeColor=default;align=center;verticalAlign=middle;fontFamily=Helvetica;fontSize=11;fontColor=default;endArrow=none;endFill=0;" edge="1" parent="1" source="Q2JburaHx3kO2y-ahh9q-6" target="Q2JburaHx3kO2y-ahh9q-7">
          <mxGeometry relative="1" as="geometry" />
        </mxCell>
        <mxCell id="Q2JburaHx3kO2y-ahh9q-10" style="edgeStyle=orthogonalEdgeStyle;shape=connector;rounded=0;orthogonalLoop=1;jettySize=auto;html=1;labelBackgroundColor=default;strokeColor=default;align=center;verticalAlign=middle;fontFamily=Helvetica;fontSize=11;fontColor=default;endArrow=none;endFill=0;" edge="1" parent="1" source="Q2JburaHx3kO2y-ahh9q-6" target="Q2JburaHx3kO2y-ahh9q-9">
          <mxGeometry relative="1" as="geometry" />
        </mxCell>
        <mxCell id="Q2JburaHx3kO2y-ahh9q-6" value="2" style="whiteSpace=wrap;html=1;aspect=fixed;fontFamily=Helvetica;fontSize=11;fontColor=default;" vertex="1" parent="1">
          <mxGeometry x="360" y="40" width="80" height="80" as="geometry" />
        </mxCell>
        <mxCell id="Q2JburaHx3kO2y-ahh9q-7" value="Mongo" style="shape=datastore;whiteSpace=wrap;html=1;" vertex="1" parent="1">
          <mxGeometry x="570" y="50" width="60" height="60" as="geometry" />
        </mxCell>
        <mxCell id="Q2JburaHx3kO2y-ahh9q-9" value="Kafka" style="shape=cylinder3;whiteSpace=wrap;html=1;boundedLbl=1;backgroundOutline=1;size=15;fontFamily=Helvetica;fontSize=11;fontColor=default;rotation=90;horizontal=0;" vertex="1" parent="1">
          <mxGeometry x="167.5" y="-5" width="35" height="170" as="geometry" />
        </mxCell>
        <mxCell id="Q2JburaHx3kO2y-ahh9q-14" style="edgeStyle=orthogonalEdgeStyle;shape=connector;rounded=0;orthogonalLoop=1;jettySize=auto;html=1;labelBackgroundColor=default;strokeColor=default;align=center;verticalAlign=middle;fontFamily=Helvetica;fontSize=11;fontColor=default;endArrow=none;endFill=0;" edge="1" parent="1" source="Q2JburaHx3kO2y-ahh9q-12" target="Q2JburaHx3kO2y-ahh9q-9">
          <mxGeometry relative="1" as="geometry">
            <Array as="points">
              <mxPoint x="60" y="80" />
            </Array>
          </mxGeometry>
        </mxCell>
        <mxCell id="Q2JburaHx3kO2y-ahh9q-16" style="edgeStyle=orthogonalEdgeStyle;shape=connector;rounded=0;orthogonalLoop=1;jettySize=auto;html=1;labelBackgroundColor=default;strokeColor=default;align=center;verticalAlign=middle;fontFamily=Helvetica;fontSize=11;fontColor=default;endArrow=none;endFill=0;" edge="1" parent="1" source="Q2JburaHx3kO2y-ahh9q-12" target="Q2JburaHx3kO2y-ahh9q-15">
          <mxGeometry relative="1" as="geometry" />
        </mxCell>
        <mxCell id="Q2JburaHx3kO2y-ahh9q-12" value="1" style="whiteSpace=wrap;html=1;aspect=fixed;fontFamily=Helvetica;fontSize=11;fontColor=default;" vertex="1" parent="1">
          <mxGeometry x="20" y="230" width="80" height="80" as="geometry" />
        </mxCell>
        <mxCell id="Q2JburaHx3kO2y-ahh9q-15" value="ClickHouse" style="shape=datastore;whiteSpace=wrap;html=1;fontFamily=Helvetica;fontSize=11;fontColor=default;" vertex="1" parent="1">
          <mxGeometry x="30" y="400" width="60" height="60" as="geometry" />
        </mxCell>
        <mxCell id="Q2JburaHx3kO2y-ahh9q-18" value="Redis" style="shape=datastore;whiteSpace=wrap;html=1;" vertex="1" parent="1">
          <mxGeometry x="710" y="240" width="60" height="60" as="geometry" />
        </mxCell>
        <mxCell id="Q2JburaHx3kO2y-ahh9q-23" style="edgeStyle=orthogonalEdgeStyle;shape=connector;rounded=0;orthogonalLoop=1;jettySize=auto;html=1;labelBackgroundColor=default;strokeColor=default;align=center;verticalAlign=middle;fontFamily=Helvetica;fontSize=11;fontColor=default;endArrow=none;endFill=0;" edge="1" parent="1" source="Q2JburaHx3kO2y-ahh9q-21" target="Q2JburaHx3kO2y-ahh9q-22">
          <mxGeometry relative="1" as="geometry" />
        </mxCell>
        <mxCell id="Q2JburaHx3kO2y-ahh9q-21" value="4" style="whiteSpace=wrap;html=1;aspect=fixed;" vertex="1" parent="1">
          <mxGeometry x="360" y="390" width="80" height="80" as="geometry" />
        </mxCell>
        <mxCell id="Q2JburaHx3kO2y-ahh9q-22" value="Neo4j" style="shape=datastore;whiteSpace=wrap;html=1;" vertex="1" parent="1">
          <mxGeometry x="190" y="400" width="60" height="60" as="geometry" />
        </mxCell>
      </root>
    </mxGraphModel>
  </diagram>
</mxfile>
